<svg version="1.1" id="Layer_1" xmlns="http://www.w3.org/2000/svg" xmlns:xlink="http://www.w3.org/1999/xlink" x="0px" y="0px"
	 width="100%" viewBox="0 0 1080 1080" enable-background="new 0 0 1080 1080" xml:space="preserve">
<path fill="#356FE9" opacity="1.000000" stroke="none" 
	d="
M892.590332,1.218534 
	C902.020874,1.000000 911.041809,1.000000 920.531372,1.000000 
	C930.187378,2.153059 939.412781,1.195747 948.615967,1.489880 
	C950.759033,1.558372 952.906250,1.500003 955.527100,1.500002 
	C963.946838,1.500003 971.890930,1.500002 980.310669,1.500002 
	C984.584717,1.500003 988.383118,1.500003 992.659180,1.500002 
	C1001.150085,1.500003 1009.163269,1.500002 1017.662964,1.500002 
	C1038.805786,1.541113 1059.462402,1.417606 1080.559326,1.781036 
	C1081.000000,99.687561 1081.000000,197.375122 1081.000000,295.531342 
	C1079.624268,297.722198 1077.817383,298.178680 1075.672485,298.069885 
	C1061.530762,297.352661 1047.493774,295.584290 1033.439453,293.975983 
	C997.632446,289.878357 962.628723,281.307251 927.223633,274.972839 
	C904.941956,270.986359 882.601807,267.203125 860.096069,264.814117 
	C847.711609,263.499512 835.185059,263.394653 822.680115,263.351288 
	C803.870117,263.286072 785.134644,261.406189 766.399231,259.810486 
	C765.237854,259.711578 764.080627,259.499054 762.914795,259.518158 
	C745.756348,259.799347 728.637146,258.483734 711.481567,258.276550 
	C690.199402,258.019592 668.920715,255.873032 647.652222,255.862579 
	C627.601440,255.852722 607.824707,252.958420 587.867859,252.078384 
	C570.164734,251.297729 552.428589,251.478531 535.013123,252.974274 
	C511.577301,254.987106 488.103790,254.508636 464.722534,256.437714 
	C456.696777,257.099915 448.810089,258.893280 441.433502,261.884674 
	C430.855255,266.174469 419.864441,268.780975 408.847107,271.331604 
	C402.406281,272.822754 398.255554,275.795807 396.400818,282.556244 
	C394.285858,290.265106 382.824951,297.105865 372.832794,297.382660 
	C356.003204,297.848877 339.304901,297.283783 322.624084,294.125183 
	C301.448395,290.115540 279.935760,289.751465 258.434845,290.981445 
	C254.038055,291.232941 250.942566,289.582397 248.956360,285.913452 
	C247.194946,282.659760 245.118454,279.760651 242.510345,277.105438 
	C238.712662,273.239227 239.458313,269.838165 244.376938,267.174377 
	C249.087982,264.623047 254.328812,263.377472 259.216919,261.246796 
	C264.162537,259.091034 269.457855,258.502167 274.832642,258.078522 
	C267.457153,257.041565 260.113800,256.091125 252.941528,254.131439 
	C248.281311,252.858124 243.689896,251.622116 239.376923,249.231766 
	C235.089264,246.855484 230.121887,246.424057 225.277618,246.514664 
	C195.788422,247.066208 166.334076,244.808334 136.848145,245.482544 
	C131.486572,245.605148 126.226326,244.696945 120.908882,244.388382 
	C101.075348,243.237503 81.635208,245.750641 62.517296,250.651627 
	C44.379936,255.301254 26.183561,253.646057 7.940638,252.266693 
	C5.602119,252.089874 3.331709,251.474274 1.317647,249.314285 
	C1.000000,167.883514 1.044642,86.766930 0.874167,5.650801 
	C0.865215,1.391174 1.992685,0.899331 5.843665,0.902256 
	C157.249939,1.017240 308.656311,1.000000 460.531342,1.000000 
	C463.743073,2.013202 466.577209,1.315729 469.683655,1.222721 
	C472.700012,1.000000 475.400024,1.000000 478.550018,1.000000 
	C484.121307,2.082984 489.305573,1.220561 494.918823,1.500002 
	C505.806549,1.500003 516.228333,1.500002 527.114624,1.500002 
	C531.524597,1.500003 535.470093,1.500003 539.859070,1.500002 
	C542.620728,1.472600 544.939880,1.561075 547.628662,1.220960 
	C633.020874,1.000000 718.041809,1.000000 803.531372,1.000000 
	C808.186096,2.082686 812.448608,1.228115 817.135986,1.500002 
	C836.255310,1.500003 854.905273,1.500002 874.028931,1.500002 
	C880.395203,1.460765 886.288330,1.580177 892.590332,1.218534 
z"/>
<path fill="#3E73E9" opacity="1.000000" stroke="none" 
	d="
M1.000000,249.468658 
	C14.859154,251.198456 28.860304,250.928070 42.818439,251.302811 
	C45.772060,251.382111 48.785027,250.851181 51.705906,250.273865 
	C64.614014,247.722580 77.418129,244.508118 90.415535,242.586655 
	C101.945137,240.882202 113.759590,241.389008 125.334961,242.248199 
	C138.670471,243.238022 151.974335,242.376755 165.263870,243.050262 
	C186.061493,244.104279 206.867310,243.915619 227.674301,244.058624 
	C234.081589,244.102661 239.677643,246.897964 245.588867,249.253189 
	C254.638870,252.859024 264.410065,254.865814 274.347717,254.980988 
	C277.214172,255.014221 280.010132,255.247589 282.628754,256.493713 
	C283.536346,256.925598 284.573395,257.532410 284.175720,258.690369 
	C283.952759,259.339600 283.115021,259.947021 282.415222,260.233154 
	C279.712677,261.338074 276.830994,261.034180 274.014618,260.979431 
	C263.261841,260.770508 254.174377,266.105530 244.622498,269.821716 
	C241.694382,270.960907 241.590820,273.529694 244.004730,275.290588 
	C247.506760,277.845276 249.814987,280.931061 251.274780,285.041290 
	C252.211853,287.679718 254.759155,288.708801 257.819794,288.545776 
	C279.798309,287.375031 301.777740,287.549622 323.442780,291.714050 
	C339.764343,294.851379 356.135498,295.388489 372.622803,294.972687 
	C383.500183,294.698364 392.172119,287.856964 395.235138,277.158875 
	C396.215546,273.734619 398.590393,271.843750 401.699402,270.773773 
	C404.369324,269.854889 407.113525,269.029266 409.892242,268.569183 
	C425.752106,265.943024 440.177216,258.411591 455.876648,255.236404 
	C462.259003,253.945587 468.715485,252.729614 475.167511,253.093246 
	C503.199554,254.673096 530.936096,249.848312 558.920471,249.590683 
	C580.930725,249.388062 602.748657,250.060898 624.559814,252.612259 
	C625.716248,252.747543 626.873718,252.938629 628.033997,252.966171 
	C643.171326,253.325516 658.338318,253.186157 673.440002,254.114212 
	C694.877686,255.431671 716.315674,255.812256 737.778503,256.190216 
	C756.211731,256.514893 774.690308,257.373383 793.025879,259.217926 
	C809.654114,260.890717 826.264465,260.504761 842.879211,261.143402 
	C856.317444,261.659912 869.664001,263.549652 883.025024,265.351532 
	C923.150208,270.762756 962.566772,279.954224 1002.401062,286.864532 
	C1025.157715,290.812256 1048.067383,293.999146 1071.201904,295.050507 
	C1074.184570,295.186066 1077.151245,295.672882 1080.562622,295.998474 
	C1081.000000,375.687561 1081.000000,455.375122 1081.000000,535.531372 
	C1077.262207,539.767883 1072.211670,538.773743 1067.765991,539.201965 
	C1050.193115,540.894592 1032.534546,541.039551 1014.895874,541.669250 
	C980.597717,542.893677 946.248840,545.038940 912.010620,543.184570 
	C857.866760,540.251953 803.734985,542.331421 749.608704,541.435913 
	C747.102112,541.394409 744.604858,541.317078 741.816895,540.072083 
	C738.692688,536.693604 739.598877,532.858398 739.592346,529.303772 
	C739.502136,479.991699 739.540771,430.679535 739.535461,381.367371 
	C739.534729,374.703583 739.561890,368.039642 739.526001,361.376007 
	C739.475647,352.022919 738.018555,350.510620 728.885132,350.477966 
	C716.890503,350.435059 704.895386,350.429718 692.900757,350.480347 
	C684.053711,350.517670 682.487732,352.083466 682.481506,361.082367 
	C682.443420,415.892151 682.478516,470.701935 682.446960,525.511719 
	C682.444824,529.164490 682.741760,532.851135 681.489258,536.853638 
	C678.940491,539.317993 676.073059,539.390808 673.246826,539.404053 
	C653.916199,539.494324 634.556274,540.119324 615.263489,539.224731 
	C598.329956,538.439453 581.382812,537.115173 564.460205,536.017700 
	C544.578491,534.728333 524.424438,533.677368 504.636169,537.319031 
	C489.140656,540.170715 474.889435,536.864380 460.811310,531.120361 
	C451.404633,527.282410 442.137634,523.105347 432.581879,519.627747 
	C429.637695,518.556274 426.488373,517.643982 424.845947,513.959167 
	C423.791229,510.734375 425.595947,508.743042 426.921417,506.707703 
	C445.018860,478.918030 448.040802,448.895233 439.077118,417.615723 
	C433.722015,398.928802 422.099365,384.213623 405.952271,373.291016 
	C386.851410,360.370392 365.530518,354.184021 342.683899,352.317596 
	C298.931427,348.743317 255.111145,351.168671 211.327347,350.520599 
	C204.965256,350.426422 203.493057,352.241943 203.480484,359.267975 
	C203.422928,391.425415 203.460815,423.582947 203.455612,455.740448 
	C203.451660,480.233459 203.472061,504.726501 203.437408,529.219482 
	C203.432938,532.373352 203.684967,535.561157 202.491287,539.019653 
	C196.512894,543.249329 189.652069,543.408630 183.242722,544.961426 
	C141.795044,555.003052 99.827118,562.651428 58.220642,571.972290 
	C42.783691,575.430542 27.332756,578.795227 12.121681,583.197998 
	C8.773829,584.166992 5.196793,585.993713 1.306318,583.291992 
	C1.000000,471.979095 1.000000,360.958221 1.000000,249.468658 
z"/>
<path fill="#2260E6" opacity="1.000000" stroke="none" 
	d="
M1080.674561,870.682251 
	C1081.000000,939.646790 1080.971558,1008.293579 1081.087158,1076.940186 
	C1081.092651,1080.231812 1080.608521,1081.102051 1077.062012,1081.100952 
	C719.665649,1080.992920 362.269257,1080.992188 4.872936,1081.107788 
	C1.193224,1081.109009 0.918975,1080.029053 0.923384,1076.875122 
	C1.023073,1005.562683 1.000000,934.249939 1.000000,862.468628 
	C3.455785,859.647095 5.474904,861.152100 7.629161,862.627075 
	C19.467205,870.732239 31.398706,878.781799 45.113106,883.388916 
	C57.267124,887.471802 69.614769,891.031921 82.233070,893.430176 
	C89.050232,894.725708 94.241760,897.715332 98.912308,903.220459 
	C110.146973,916.462830 123.735977,926.701111 141.823242,928.064514 
	C154.479309,929.018555 167.445572,928.333801 179.262146,923.690247 
	C198.166290,916.261414 217.745758,913.114746 237.722198,911.626099 
	C259.638702,909.992859 281.608215,909.527405 303.587067,909.535217 
	C365.570038,909.557312 427.565521,910.308289 489.531982,909.296753 
	C537.675476,908.510864 585.823486,909.591980 633.935364,908.292236 
	C660.591125,907.572144 687.229858,908.157349 713.863464,907.461365 
	C722.836060,907.226990 731.350281,909.589905 740.083008,910.702026 
	C762.793518,913.594299 785.253296,912.893555 807.243896,905.743591 
	C812.736511,903.957703 816.963135,899.997253 822.048462,897.504822 
	C824.931396,896.091797 827.773621,894.906921 830.974548,894.531860 
	C840.733826,893.388367 850.496399,892.413025 860.345703,892.531189 
	C885.661743,892.834839 910.946350,891.256653 936.270569,891.361938 
	C953.082642,891.431885 969.818542,889.465088 986.202209,885.287781 
	C987.814270,884.876709 989.480652,884.554199 991.147766,884.639771 
	C1009.849792,885.599609 1027.743408,880.165955 1046.019653,877.766357 
	C1049.982056,877.246216 1053.027588,875.195129 1056.290405,873.065796 
	C1063.727051,868.212585 1071.829712,866.796448 1080.674561,870.682251 
z"/>
<path fill="#376FE8" opacity="1.000000" stroke="none" 
	d="
M1.000000,583.468628 
	C11.763178,581.494690 21.964993,577.698303 32.502308,575.233398 
	C71.601952,566.087219 110.959015,558.180481 150.269943,550.044250 
	C166.906952,546.600952 183.228729,541.735657 200.431793,539.021667 
	C203.121399,539.662415 203.131195,541.627380 203.296555,543.432800 
	C203.539948,546.090332 203.444244,548.762085 203.444504,551.428040 
	C203.449768,602.925659 203.446991,654.423279 203.448624,705.920898 
	C203.448700,707.920715 203.384750,709.923401 203.490524,711.919800 
	C203.756927,716.947693 205.135437,718.428772 210.259964,718.494690 
	C222.424728,718.651367 234.591660,718.538208 246.757706,718.550354 
	C249.257477,718.552856 251.757233,718.538696 254.257065,718.520691 
	C258.328522,718.491333 260.432129,716.516846 260.507202,712.409363 
	C260.543762,710.409424 260.550537,708.409851 260.550781,706.410095 
	C260.556244,664.078735 260.534454,621.747375 260.564301,579.416016 
	C260.572479,567.807861 260.799347,567.631836 272.224670,567.553589 
	C283.390686,567.477112 294.534119,567.730225 305.518982,570.018005 
	C319.667023,572.964478 330.726471,580.920593 340.058258,591.578247 
	C354.212646,607.743713 364.246155,626.631714 375.183167,644.921082 
	C388.438110,667.086609 401.840668,689.164490 414.965942,711.406494 
	C417.893372,716.367249 421.496307,718.743958 427.447998,718.646729 
	C444.275848,718.371948 461.111511,718.572937 477.943909,718.519531 
	C479.841705,718.513550 482.324066,719.298340 483.340088,717.047485 
	C484.160156,715.230713 482.577972,713.561584 481.599915,712.064270 
	C457.455475,675.103027 435.190338,636.920471 409.763824,600.799927 
	C397.722534,583.694214 383.895233,568.147034 366.026733,556.723511 
	C364.270233,555.600586 362.749207,554.363098 362.917542,552.012085 
	C363.103241,549.417969 364.991302,548.398987 367.088745,547.586670 
	C369.265564,546.743713 371.469666,545.973694 373.700226,545.292969 
	C392.005585,539.706482 407.333099,529.445007 420.411224,515.628113 
	C421.743378,514.220703 422.743805,512.233582 425.581604,512.715271 
	C426.976746,514.534790 428.569641,515.507507 430.305664,516.086670 
	C447.331757,521.766785 463.110321,530.759216 480.752228,534.856934 
	C486.736298,536.246826 492.652832,536.418335 498.571747,535.531555 
	C524.411621,531.659912 550.265381,532.120544 576.171265,534.685303 
	C583.108948,535.372192 590.102112,535.444519 597.067871,535.893738 
	C624.322632,537.651489 651.628723,536.896790 679.374756,537.004944 
	C681.955750,537.809937 682.086304,539.704163 682.264526,541.535400 
	C682.539124,544.358582 682.459167,547.194519 682.459656,550.025757 
	C682.468201,601.502808 682.462646,652.979858 682.465942,704.456909 
	C682.466064,706.455933 682.409973,708.457214 682.519348,710.453369 
	C682.839539,716.295227 684.682922,718.159302 690.451416,718.484436 
	C692.114502,718.578247 693.782593,718.534058 695.448486,718.534119 
	C754.088989,718.536194 812.729553,718.536011 871.370056,718.534424 
	C872.869385,718.534424 874.369629,718.560791 875.867737,718.504883 
	C882.484558,718.258301 884.391785,716.407410 884.488098,709.641113 
	C884.627991,699.813660 884.592651,689.983215 884.505493,680.154907 
	C884.435913,672.310425 882.629089,670.505249 874.637939,670.492493 
	C834.489258,670.428406 794.340393,670.476624 754.191650,670.458435 
	C751.193970,670.457031 748.197998,670.448364 745.201416,670.241455 
	C741.836060,670.009155 740.036499,668.338928 739.778076,664.943909 
	C739.613525,662.781006 739.550110,660.618835 739.548828,658.453613 
	C739.527039,621.969910 739.503601,585.486084 739.589905,549.002563 
	C739.597595,545.768982 738.816406,542.278076 741.729126,539.220093 
	C789.323059,539.004150 836.516052,537.875305 883.622131,539.412048 
	C913.082336,540.373108 942.534790,541.427490 971.964355,540.756653 
	C994.906677,540.233765 1017.837708,539.056641 1040.806396,538.795593 
	C1053.906738,538.646606 1066.989868,536.982056 1080.540283,536.000000 
	C1081.000000,608.020874 1081.000000,680.041809 1081.000000,752.531372 
	C1079.191650,755.329895 1076.745361,755.231201 1074.180908,754.853455 
	C1044.177002,750.433594 1014.137390,752.035156 984.071106,754.138550 
	C974.449829,754.811523 964.777344,755.167969 955.140930,755.328369 
	C931.984558,755.713928 908.789612,756.182190 885.662659,755.264465 
	C857.035583,754.128601 828.413269,753.787476 799.781006,753.243103 
	C776.303833,752.796692 753.087341,748.735779 729.766846,746.136963 
	C712.243164,744.184143 694.761230,741.727234 677.069946,741.300110 
	C668.436035,741.091675 660.021851,738.323059 651.338013,737.961975 
	C641.607910,737.557434 632.040894,735.553101 623.621338,734.957397 
	C627.263611,735.173218 631.981628,736.533630 636.679260,737.859192 
	C645.818176,740.437744 654.919067,743.151733 664.075012,745.672241 
	C665.523682,746.071045 666.959290,746.539490 668.295776,747.212830 
	C669.870483,748.006165 670.974487,749.244812 670.872131,751.143799 
	C670.759827,753.229370 669.564514,754.558044 667.584595,755.025513 
	C664.994873,755.637024 662.406738,756.358948 659.717163,756.372192 
	C632.722717,756.505005 605.708008,757.114319 578.740417,756.174561 
	C557.797546,755.444702 536.798950,755.663940 515.901733,753.528809 
	C504.108643,752.323914 492.571686,754.599304 481.379028,757.876648 
	C459.036041,764.418945 435.996033,767.074890 413.082367,769.883667 
	C398.142426,771.715088 382.855408,771.460938 367.705109,771.457275 
	C345.396729,771.451904 323.094238,771.520081 300.899475,774.285461 
	C297.431458,774.717590 293.906219,774.485413 290.408142,774.449219 
	C271.739349,774.256226 253.201126,777.004639 234.574371,777.138184 
	C216.485413,777.267944 198.764389,780.265747 180.929962,782.468811 
	C169.512512,783.879272 158.475906,787.304260 147.078201,788.945129 
	C131.277237,791.219788 115.499161,790.658936 99.745514,789.081909 
	C88.217537,787.927917 78.616776,781.737427 69.820435,774.913635 
	C57.088840,765.037048 42.760674,763.675415 27.683702,765.022461 
	C20.204973,765.690552 12.687726,765.015808 5.235537,766.039490 
	C3.866661,766.227478 2.608867,765.707458 1.325269,764.317017 
	C1.000000,759.643127 1.000000,755.286194 1.000000,750.464661 
	C2.795857,747.699585 5.465581,747.147949 8.073677,746.737488 
	C20.409813,744.796021 32.383354,741.217346 44.602806,738.765320 
	C52.901196,737.100159 60.220890,737.979187 65.955696,745.477844 
	C69.790741,750.492432 75.597298,753.005432 81.913071,753.891663 
	C84.673294,754.279053 87.328606,753.819214 89.067451,751.384521 
	C90.834007,748.911133 90.350800,746.190857 88.881187,743.849243 
	C85.699539,738.779724 82.661591,733.636353 79.748199,728.408813 
	C78.403786,725.996460 75.995247,724.642334 73.481583,723.683533 
	C70.288620,722.465637 68.365822,720.228394 67.161484,717.086060 
	C65.973114,713.985352 64.449982,710.995117 63.318523,707.886719 
	C61.656208,703.320068 58.414314,701.132263 53.943367,699.865723 
	C39.760693,695.848450 25.499550,695.328491 11.010177,697.959351 
	C7.969615,698.511414 4.566603,700.481323 1.280499,697.270996 
	C1.000000,659.312439 1.000000,621.624878 1.000000,583.468628 
z"/>
<path fill="#2D68E8" opacity="1.000000" stroke="none" 
	d="
M1.000000,764.468628 
	C10.450047,763.372131 19.891739,762.519104 29.352058,762.167969 
	C44.335606,761.611938 58.880219,762.470520 71.219292,773.017761 
	C84.955261,784.759094 101.600914,787.836609 119.204460,788.089844 
	C137.354935,788.350952 154.893005,784.798584 172.590530,781.512329 
	C190.714798,778.146729 208.977280,775.368469 227.520401,774.940857 
	C251.790787,774.381104 276.041260,772.794556 300.265991,771.511780 
	C324.028534,770.253540 347.761230,769.430176 371.539948,768.875427 
	C393.915009,768.353455 416.194519,767.336731 438.514038,763.914368 
	C458.189087,760.897461 477.147369,755.259705 496.631287,751.815247 
	C504.433136,750.436035 512.246948,750.935181 520.045349,751.216187 
	C530.172363,751.581238 540.276245,752.568115 550.402710,752.966736 
	C585.192871,754.336182 620.003662,753.964661 654.809204,754.016724 
	C658.321472,754.021973 661.800049,753.891846 665.232056,753.091064 
	C666.622070,752.766663 668.763306,753.203979 668.923157,751.333923 
	C669.109192,749.158752 666.764709,749.096619 665.287415,748.659424 
	C657.621643,746.391052 649.940735,744.167725 642.225647,742.074097 
	C633.865662,739.805481 625.457275,737.716003 617.081970,735.502991 
	C615.370667,735.050903 613.445801,734.995728 612.117188,733.499268 
	C612.967041,731.391479 614.696167,731.991211 616.007874,732.102295 
	C627.431458,733.069885 638.878235,733.875732 650.256165,735.244446 
	C666.755737,737.229126 683.275513,738.825195 699.829407,740.310730 
	C719.847229,742.107239 739.843750,744.550232 759.792114,747.265747 
	C769.466064,748.582642 779.255005,749.494141 789.054810,750.159851 
	C809.036194,751.517151 829.053528,749.936462 848.971863,751.178223 
	C882.579834,753.273376 916.197998,753.221802 949.815979,752.855286 
	C964.912415,752.690735 980.020203,751.867004 995.116272,750.394836 
	C1008.159485,749.122803 1021.418640,750.164368 1034.579102,749.969299 
	C1049.856934,749.742798 1065.121582,749.431763 1080.569580,752.998901 
	C1081.000000,792.020874 1081.000000,831.041809 1081.000000,870.531372 
	C1076.347412,871.173706 1071.688477,870.702393 1067.035645,871.462158 
	C1062.484985,872.205200 1058.641479,873.797363 1055.143066,877.109802 
	C1050.370605,881.628296 1043.572388,880.571960 1037.667236,881.856140 
	C1032.005371,883.087524 1026.121338,883.150330 1020.438049,884.581482 
	C1013.314880,886.375183 1006.078186,887.523071 998.678650,886.999146 
	C988.513489,886.279358 978.836670,889.170288 969.130554,891.355652 
	C957.945679,893.873962 946.545898,893.668091 935.352661,893.723755 
	C907.542725,893.862061 879.764038,895.419250 851.948059,895.128662 
	C844.512024,895.050964 837.049377,896.365662 829.620300,897.225891 
	C825.352539,897.720032 821.613342,900.053406 818.452454,902.561340 
	C809.468628,909.689758 798.555237,910.822693 788.054688,912.831482 
	C767.332825,916.795532 746.664917,914.719177 726.117920,910.784607 
	C723.520752,910.287292 720.835999,910.039734 718.190979,910.033386 
	C694.697449,909.976746 671.177307,909.286072 647.715637,910.152283 
	C601.746887,911.849487 555.769836,909.951355 509.822723,911.107605 
	C434.699371,912.998047 359.571320,911.131958 284.455353,912.129578 
	C258.375397,912.475952 232.215042,913.073059 206.450058,918.078491 
	C197.758835,919.767029 189.574921,923.163757 181.156265,925.760925 
	C163.942596,931.071533 146.024429,933.901001 128.656586,928.004395 
	C115.883873,923.667847 104.752525,915.352051 96.462891,904.354065 
	C92.686569,899.343994 88.091446,897.149231 82.356285,896.010742 
	C55.835007,890.746216 30.387491,882.792175 8.355674,866.290894 
	C6.275704,864.732971 4.649078,862.330566 1.357667,862.036621 
	C1.000000,829.645752 1.000000,797.291565 1.000000,764.468628 
z"/>
<path fill="#316DE8" opacity="1.000000" stroke="none" 
	d="
M1.000000,697.468628 
	C10.880837,695.803833 20.613390,693.774536 30.702797,693.822693 
	C40.042633,693.867249 48.770077,696.214600 57.641582,698.360596 
	C61.390701,699.267578 63.699535,701.465881 64.910400,705.126709 
	C65.795311,707.802124 67.255898,710.288391 68.123451,712.967896 
	C69.578789,717.462769 71.795525,720.937622 76.683937,722.465393 
	C79.572937,723.368225 81.757332,725.629089 82.971626,728.546387 
	C84.838333,733.031006 87.460403,737.054810 90.244499,741.008545 
	C92.995735,744.915710 94.524536,749.333191 91.402870,753.508301 
	C88.625427,757.223022 84.310081,757.316956 80.020699,756.244751 
	C73.070084,754.507568 66.958511,751.484497 62.608452,745.482971 
	C58.416527,739.699585 52.185204,739.976074 46.312298,741.042236 
	C33.393646,743.387451 20.804382,747.344788 7.790935,749.305481 
	C5.824303,749.601685 3.838370,749.769836 1.430683,749.998657 
	C1.000000,732.645752 1.000000,715.291565 1.000000,697.468628 
z"/>
<path fill="#6C96EF" opacity="1.000000" stroke="none" 
	d="
M1081.000000,1.500000 
	C1060.321289,1.978094 1039.642456,1.956187 1018.497437,1.914359 
	C1017.804565,1.753085 1017.578003,1.611732 1017.675720,1.235190 
	C1039.000000,1.000000 1060.000000,1.000000 1081.000000,1.500000 
z"/>
<path fill="#4A7EEA" opacity="1.000000" stroke="none" 
	d="
M875.303589,1.736725 
	C855.966858,1.966228 836.968323,1.965889 817.503479,1.964608 
	C816.810913,1.811545 816.584595,1.659422 816.679199,1.253650 
	C836.020874,1.000000 855.041809,1.000000 874.531372,1.000000 
	C875.213989,1.168961 875.427917,1.337922 875.303589,1.736725 
z"/>
<path fill="#3E74EA" opacity="1.000000" stroke="none" 
	d="
M956.345886,1.710907 
	C944.602295,1.684803 933.145569,2.719318 921.364258,1.193769 
	C932.354248,1.000000 943.708435,1.000000 955.531372,1.000000 
	C956.218262,1.152555 956.436523,1.305110 956.345886,1.710907 
z"/>
<path fill="#5A87EE" opacity="1.000000" stroke="none" 
	d="
M528.302185,1.720335 
	C517.285095,1.961728 506.607635,1.980479 495.461273,1.982557 
	C494.779266,1.803210 494.566193,1.640536 494.676575,1.238931 
	C505.687561,1.000000 516.375122,1.000000 527.531372,1.000000 
	C528.213989,1.165898 528.427917,1.331795 528.302185,1.720335 
z"/>
<path fill="#4A7EEA" opacity="1.000000" stroke="none" 
	d="
M956.501892,1.967682 
	C956.036987,1.964149 956.016479,1.482151 956.008240,1.241075 
	C964.020935,1.000000 972.041809,1.000000 980.531372,1.000000 
	C981.221252,1.147355 981.442444,1.294711 981.351746,1.690392 
	C973.015442,1.949550 964.991150,1.960382 956.501892,1.967682 
z"/>
<path fill="#608CEF" opacity="1.000000" stroke="none" 
	d="
M1017.531372,1.000000 
	C1018.000000,1.000000 1018.012512,1.448015 1018.021851,1.671227 
	C1010.005676,1.907068 1001.980103,1.919699 993.487549,1.913983 
	C992.796326,1.751434 992.572144,1.607231 992.674011,1.231514 
	C1001.020935,1.000000 1009.041809,1.000000 1017.531372,1.000000 
z"/>
<path fill="#3E74EA" opacity="1.000000" stroke="none" 
	d="
M875.436584,1.975798 
	C874.965393,1.966567 874.984863,1.483363 874.992432,1.241682 
	C880.688049,1.000000 886.376038,1.000000 892.532043,1.000000 
	C887.399841,3.015336 881.599976,1.566251 875.436584,1.975798 
z"/>
<path fill="#608CEF" opacity="1.000000" stroke="none" 
	d="
M494.533142,1.000000 
	C495.000000,1.000000 494.996857,1.483269 494.994629,1.724576 
	C489.893494,1.814501 484.760498,2.662764 479.349060,1.221687 
	C484.022095,1.000000 489.044189,1.000000 494.533142,1.000000 
z"/>
<path fill="#3E74EA" opacity="1.000000" stroke="none" 
	d="
M816.536804,1.000000 
	C817.000000,1.000000 817.015625,1.482347 817.026367,1.723007 
	C812.931885,1.771145 808.779297,2.584753 804.360657,1.192428 
	C808.024536,1.000000 812.049072,1.000000 816.536804,1.000000 
z"/>
<path fill="#4A7EEA" opacity="1.000000" stroke="none" 
	d="
M528.428589,1.960729 
	C527.962585,1.942976 527.984009,1.471596 527.992004,1.235798 
	C532.024902,1.000000 536.049866,1.000000 540.537354,1.000000 
	C541.213806,1.168715 541.427673,1.337431 541.305786,1.738974 
	C536.944885,1.974029 532.919800,1.976256 528.428589,1.960729 
z"/>
<path fill="#5A87EE" opacity="1.000000" stroke="none" 
	d="
M992.539368,1.000000 
	C993.000000,1.000000 993.008850,1.448737 993.014709,1.672187 
	C989.331299,1.916569 985.641968,1.937501 981.496216,1.948575 
	C981.039795,1.938717 981.016541,1.469501 981.008301,1.234751 
	C984.692932,1.000000 988.385803,1.000000 992.539368,1.000000 
z"/>
<path fill="#3E74EA" opacity="1.000000" stroke="none" 
	d="
M469.550018,1.000000 
	C467.285614,2.437259 464.498444,2.261455 461.339600,1.187693 
	C463.700012,1.000000 466.400024,1.000000 469.550018,1.000000 
z"/>
<path fill="#3E74EA" opacity="1.000000" stroke="none" 
	d="
M541.383728,1.979559 
	C540.970032,1.971802 540.987244,1.485972 540.993652,1.242986 
	C543.041687,1.000000 545.083313,1.000000 547.562500,1.000000 
	C546.081238,2.263720 543.910828,1.946532 541.383728,1.979559 
z"/>
<path fill="#FFFFFF" opacity="1.000000" stroke="none" 
	d="
M426.101959,512.566040 
	C415.074799,526.201416 401.724731,536.372375 386.060394,543.369568 
	C380.134155,546.016846 373.838196,547.845459 367.679871,549.957214 
	C366.309021,550.427246 364.477142,550.576172 364.257721,552.109436 
	C364.038574,553.640686 365.947571,553.866821 367.035583,554.510559 
	C379.718597,562.015015 389.699615,572.506775 399.202087,583.536560 
	C422.587158,610.680542 439.407684,642.262146 458.960602,671.993774 
	C469.094269,687.402771 478.902008,703.026062 488.828857,718.570557 
	C489.158844,719.087341 489.181854,719.800171 489.501404,720.995667 
	C485.733063,720.995667 482.163177,720.995667 478.593292,720.995667 
	C459.766296,720.995605 440.938904,720.930725 422.112762,721.057617 
	C418.878845,721.079407 417.160950,719.935303 415.498627,717.139038 
	C400.989319,692.732727 386.140594,668.527588 371.698761,644.081848 
	C364.388092,631.707153 357.205017,619.274170 349.111328,607.381531 
	C340.535492,594.780457 330.991730,583.197937 316.873840,576.464233 
	C309.591522,572.990784 301.842926,571.463257 293.718597,570.839417 
	C285.270752,570.190735 276.841339,570.277222 268.411652,569.902954 
	C264.113678,569.712158 262.865509,570.757935 262.884186,575.292725 
	C263.076111,621.942871 262.909943,668.594543 263.127869,715.244446 
	C263.151184,720.234680 261.720703,721.192444 257.054596,721.111694 
	C240.065414,720.817749 223.065811,720.845459 206.075394,721.101807 
	C201.867706,721.165283 200.896957,719.995789 200.905975,715.874878 
	C201.034409,657.228394 200.976608,598.581482 200.898682,539.470337 
	C200.890732,537.010498 200.997528,535.014893 200.997772,533.019348 
	C201.004807,473.040314 201.047256,413.061157 200.900620,353.082489 
	C200.890381,348.890656 201.995895,347.883759 206.125534,347.902039 
	C243.778305,348.068665 281.439148,347.568726 319.082581,348.184113 
	C337.409607,348.483734 355.949402,349.500793 373.593567,355.167908 
	C388.700348,360.020050 402.873108,366.698639 415.189606,377.409241 
	C432.224030,392.222687 442.135468,410.407043 445.019928,432.571960 
	C447.920654,454.862030 445.736145,476.407471 435.689667,496.912903 
	C433.008148,502.385986 429.157715,507.001282 426.101959,512.566040 
z"/>
<path fill="#FFFFFF" opacity="1.000000" stroke="none" 
	d="
M742.096191,538.541748 
	C742.110718,577.991028 742.050598,616.976013 742.000854,655.960938 
	C741.985474,668.001526 741.998474,668.001526 754.145752,668.001526 
	C796.799438,668.001587 839.453308,668.050781 882.106567,667.918030 
	C885.939575,667.906067 887.172241,668.775452 887.100098,672.804077 
	C886.840576,687.295044 886.886780,701.794922 887.077942,716.288025 
	C887.124817,719.840637 886.451172,721.102844 882.515198,721.094727 
	C816.535522,720.959412 750.555359,720.947510 684.575867,721.111511 
	C680.155701,721.122498 679.942749,719.333557 679.946472,715.880066 
	C680.010864,656.564941 679.976685,597.249695 679.898560,537.470276 
	C679.889465,535.011169 679.995178,533.016296 679.995422,531.021423 
	C680.002197,471.730865 680.041565,412.440216 679.902893,353.149963 
	C679.893372,349.066406 680.807312,347.826660 685.050842,347.889587 
	C702.367920,348.146545 719.693359,348.155457 737.010071,347.885712 
	C741.348877,347.818146 742.100098,349.217560 742.092346,353.211334 
	C741.972290,414.833191 742.018250,476.455353 742.096191,538.541748 
z"/>
<path fill="#3E74EA" opacity="1.000000" stroke="none" 
	d="
M338.763550,516.962219 
	C329.646149,520.078308 320.623779,520.160278 311.524841,520.053833 
	C296.865021,519.882324 282.199341,519.861145 267.541504,520.101990 
	C263.691559,520.165222 262.901276,518.980774 262.914429,515.340759 
	C263.050385,477.686981 263.048889,440.032379 262.928955,402.378510 
	C262.917877,398.898865 263.811340,397.876068 267.346680,397.923096 
	C282.172516,398.120453 297.017517,397.590057 311.826599,398.125732 
	C326.049103,398.640228 340.436981,399.534912 353.406952,406.294708 
	C361.476318,410.500336 368.657928,416.128021 373.056976,424.424469 
	C386.329987,449.457184 383.965851,473.835266 368.397003,496.750458 
	C361.526123,506.863434 350.752136,512.851746 338.763550,516.962219 
z"/>
</svg>